<svg xmlns="http://www.w3.org/2000/svg" viewBox="0 0 24.916668 25.041733" height="25.042" width="24.917"><defs><clipPath id="a"><path d="M0 18.781h18.687V0H0z"/></clipPath></defs><g clip-path="url(#a)" transform="matrix(1.33333 0 0 -1.33333 0 25.042)"><path d="M18.542 9.375A9.167 9.167 0 0 0 9.375.208 9.167 9.167 0 0 0 .208 9.375a9.167 9.167 0 0 0 9.167 9.167 9.167 9.167 0 0 0 9.167-9.167" fill="#0074a6"/><path d="M9.375 7.931a.49.49 0 0 0-.273.083l-4.006 2.671a.49.49 0 0 0-.136.68.5.5 0 0 0 .68.134l3.735-2.49 3.736 2.491a.504.504 0 0 0 .679-.136.49.49 0 0 0-.136-.679L9.647 8.013a.491.491 0 0 0-.272-.082m4.393-1.34a.487.487 0 0 0-.271.082l-1.718 1.145a.492.492 0 0 0-.136.68.501.501 0 0 0 .679.135l1.718-1.145a.481.481 0 0 0 .208-.31.49.49 0 0 0-.48-.586m-8.821-.036a.487.487 0 0 0-.481.585.49.49 0 0 0 .209.312l1.717 1.145a.503.503 0 0 0 .679-.136.486.486 0 0 0-.136-.679L5.218 6.638a.487.487 0 0 0-.271-.082m9.199 6.636H4.604a.98.98 0 0 1-.954-.955V6.504c0-.504.446-.946.954-.946h9.542c.508 0 .954.442.954.946v5.733a.98.98 0 0 1-.954.955" fill="#fff"/></g></svg>