<svg xmlns="http://www.w3.org/2000/svg" viewBox="0 0 24.916668 25.041733" height="25.042" width="24.917"><defs><clipPath id="a"><path d="M0 18.781h18.687V0H0z"/></clipPath></defs><g clip-path="url(#a)" transform="matrix(1.33333 0 0 -1.33333 0 25.042)"><path d="M18.597 9.32A9.167 9.167 0 0 0 9.43.153 9.167 9.167 0 0 0 .263 9.32a9.167 9.167 0 0 0 9.167 9.167 9.167 9.167 0 0 0 9.167-9.167" fill="#0074a6"/><path d="M5.176 10.997h1.84V5.079h-1.84zm1.9 1.646c0-.509-.376-.92-.993-.92-.581 0-.956.411-.956.92 0 .52.388.919.98.919.593 0 .957-.399.969-.919m1.04-3.534c0 .738-.024 1.355-.048 1.888h1.597l.085-.823h.036c.242.387.835.956 1.828.956 1.21 0 2.118-.811 2.118-2.553V5.079h-1.84v3.28c0 .762-.266 1.282-.932 1.282-.508 0-.81-.35-.944-.69-.048-.12-.06-.29-.06-.46V5.08h-1.84z" fill="#fff"/></g></svg>