<svg xmlns="http://www.w3.org/2000/svg" viewBox="0 0 62.666668 74.666664" height="74.667" width="62.667"><defs><clipPath id="a"><path d="M0 56h47V0H0z"/></clipPath></defs><g clip-path="url(#a)" transform="matrix(1.33333 0 0 -1.33333 0 74.667)" fill="none" stroke="#0074a6" stroke-width="1.132" stroke-linecap="round" stroke-linejoin="round" stroke-miterlimit="10"><path d="M19.045 33.787l-1.392-.804a2.464 2.464 0 0 0-3.365.902l-.138.24a2.464 2.464 0 0 0 .9 3.365l6.233 3.598a2.464 2.464 0 0 0 3.365-.902l.139-.24a2.464 2.464 0 0 0-.902-3.365l-.551-.318"/><path d="M26.705 41.213l1.392.804a2.464 2.464 0 0 0 3.365-.902l.138-.24a2.464 2.464 0 0 0-.9-3.365l-6.233-3.598a2.464 2.464 0 0 0-3.365.902l-.139.24a2.464 2.464 0 0 0 .902 3.365l.551.318"/></g></svg>