<svg xmlns="http://www.w3.org/2000/svg" viewBox="0 0 24.916668 25.041733" height="25.042" width="24.917"><defs><clipPath id="a"><path d="M0 18.781h18.687V0H0z"/></clipPath></defs><g clip-path="url(#a)" transform="matrix(1.33333 0 0 -1.33333 0 25.042)"><path d="M18.542 9.375A9.167 9.167 0 0 0 9.375.208 9.167 9.167 0 0 0 .208 9.375a9.167 9.167 0 0 0 9.167 9.167 9.167 9.167 0 0 0 9.167-9.167" fill="#0074a6"/><path d="M12.395 5.75H6.353v7.249h6.042zm-3.02-1.812a.605.605 0 1 0 .001 1.21.605.605 0 0 0-.001-1.21m-1.41 10.27h2.82a.201.201 0 0 0 0-.403h-2.82a.201.201 0 0 0 0 .403m3.826 1.208H6.959a1.21 1.21 0 0 1-1.209-1.208V4.542a1.21 1.21 0 0 1 1.209-1.208h4.832A1.21 1.21 0 0 1 13 4.542v9.666a1.21 1.21 0 0 1-1.209 1.208" fill="#fff"/></g></svg>