<?xml version="1.0" encoding="UTF-8" standalone="no"?>
<svg
   xmlns:dc="http://purl.org/dc/elements/1.1/"
   xmlns:cc="http://creativecommons.org/ns#"
   xmlns:rdf="http://www.w3.org/1999/02/22-rdf-syntax-ns#"
   xmlns:svg="http://www.w3.org/2000/svg"
   xmlns="http://www.w3.org/2000/svg"
   viewBox="0 0 24.916668 25.041733"
   height="25.041733"
   width="24.916668"
   xml:space="preserve"
   id="svg2"
   version="1.1"><metadata
     id="metadata8"><rdf:RDF><cc:Work
         rdf:about=""><dc:format>image/svg+xml</dc:format><dc:type
           rdf:resource="http://purl.org/dc/dcmitype/StillImage" /></cc:Work></rdf:RDF></metadata><defs
     id="defs6"><clipPath
       id="clipPath18"
       clipPathUnits="userSpaceOnUse"><path
         id="path16"
         d="M 0,18.781 H 18.687 V 0 H 0 Z" /></clipPath></defs><g
     transform="matrix(1.3333333,0,0,-1.3333333,0,25.041733)"
     id="g10"><g
       id="g12"><g
         clip-path="url(#clipPath18)"
         id="g14"><g
           transform="translate(18.542,9.375)"
           id="g20"><path
             id="path22"
             style="fill:#0074a6;fill-opacity:1;fill-rule:nonzero;stroke:none"
             d="m 0,0 c 0,-5.063 -4.104,-9.167 -9.167,-9.167 -5.063,0 -9.167,4.104 -9.167,9.167 0,5.063 4.104,9.167 9.167,9.167 C -4.104,9.167 0,5.063 0,0" /></g><g
           transform="translate(9.375,7.9313)"
           id="g24"><path
             id="path26"
             style="fill:#ffffff;fill-opacity:1;fill-rule:nonzero;stroke:none"
             d="m 0,0 c -0.098,0 -0.192,0.029 -0.273,0.083 l -4.006,2.671 c -0.225,0.149 -0.286,0.454 -0.136,0.679 0.144,0.218 0.461,0.282 0.68,0.135 L 0,1.078 3.736,3.569 C 3.95,3.712 4.269,3.651 4.415,3.433 4.565,3.208 4.504,2.903 4.279,2.754 L 0.272,0.082 C 0.192,0.029 0.098,0 0,0 m 4.393,-1.34 c -0.096,0 -0.19,0.028 -0.271,0.082 L 2.404,-0.113 C 2.18,0.038 2.119,0.342 2.268,0.566 2.413,0.784 2.729,0.847 2.947,0.702 L 4.665,-0.443 C 4.774,-0.515 4.848,-0.626 4.873,-0.754 4.899,-0.883 4.873,-1.013 4.8,-1.122 4.709,-1.258 4.557,-1.34 4.393,-1.34 m -8.821,-0.035 c -0.165,0 -0.317,0.081 -0.408,0.218 -0.072,0.108 -0.098,0.239 -0.073,0.367 0.026,0.128 0.1,0.239 0.209,0.312 l 1.717,1.145 c 0.215,0.144 0.534,0.082 0.679,-0.136 0.073,-0.109 0.099,-0.24 0.073,-0.368 -0.026,-0.128 -0.1,-0.239 -0.209,-0.311 l -1.717,-1.145 c -0.081,-0.054 -0.175,-0.082 -0.271,-0.082 m 9.199,6.636 h -9.542 c -0.508,0 -0.954,-0.446 -0.954,-0.955 v -5.733 c 0,-0.504 0.446,-0.946 0.954,-0.946 h 9.542 c 0.508,0 0.954,0.442 0.954,0.946 v 5.733 c 0,0.509 -0.446,0.955 -0.954,0.955" /></g></g></g></g></svg>