<?xml version="1.0" encoding="UTF-8" standalone="no"?>
<svg
   xmlns:dc="http://purl.org/dc/elements/1.1/"
   xmlns:cc="http://creativecommons.org/ns#"
   xmlns:rdf="http://www.w3.org/1999/02/22-rdf-syntax-ns#"
   xmlns:svg="http://www.w3.org/2000/svg"
   xmlns="http://www.w3.org/2000/svg"
   viewBox="0 0 62.666668 74.666664"
   height="74.666664"
   width="62.666668"
   xml:space="preserve"
   id="svg2"
   version="1.1"><metadata
     id="metadata8"><rdf:RDF><cc:Work
         rdf:about=""><dc:format>image/svg+xml</dc:format><dc:type
           rdf:resource="http://purl.org/dc/dcmitype/StillImage" /></cc:Work></rdf:RDF></metadata><defs
     id="defs6"><clipPath
       id="clipPath18"
       clipPathUnits="userSpaceOnUse"><path
         id="path16"
         d="M 0,56 H 47 V 0 H 0 Z" /></clipPath></defs><g
     transform="matrix(1.3333333,0,0,-1.3333333,0,74.666667)"
     id="g10"><g
       id="g12"><g
         clip-path="url(#clipPath18)"
         id="g14"><g
           transform="translate(19.0449,33.7866)"
           id="g20"><path
             id="path22"
             style="fill:none;stroke:#0074a6;stroke-width:1.13199997;stroke-linecap:round;stroke-linejoin:round;stroke-miterlimit:10;stroke-dasharray:none;stroke-opacity:1"
             d="M 0,0 -1.392,-0.804 C -2.57,-1.484 -4.077,-1.08 -4.757,0.098 l -0.138,0.24 c -0.68,1.178 -0.277,2.684 0.901,3.365 L 2.238,7.301 C 3.417,7.981 4.923,7.577 5.603,6.399 L 5.742,6.159 C 6.422,4.981 6.018,3.475 4.84,2.794 L 4.289,2.476" /></g><g
           transform="translate(26.7051,41.2134)"
           id="g24"><path
             id="path26"
             style="fill:none;stroke:#0074a6;stroke-width:1.13199997;stroke-linecap:round;stroke-linejoin:round;stroke-miterlimit:10;stroke-dasharray:none;stroke-opacity:1"
             d="M 0,0 1.392,0.804 C 2.57,1.484 4.077,1.08 4.757,-0.098 l 0.138,-0.24 c 0.68,-1.178 0.277,-2.684 -0.901,-3.365 l -6.232,-3.598 c -1.179,-0.68 -2.685,-0.276 -3.365,0.902 l -0.139,0.24 c -0.68,1.178 -0.276,2.684 0.902,3.365 l 0.551,0.318" /></g></g></g></g></svg>