<?xml version="1.0" encoding="UTF-8" standalone="no"?>
<svg
   xmlns:dc="http://purl.org/dc/elements/1.1/"
   xmlns:cc="http://creativecommons.org/ns#"
   xmlns:rdf="http://www.w3.org/1999/02/22-rdf-syntax-ns#"
   xmlns:svg="http://www.w3.org/2000/svg"
   xmlns="http://www.w3.org/2000/svg"
   viewBox="0 0 24.916668 25.041733"
   height="25.041733"
   width="24.916668"
   xml:space="preserve"
   id="svg2"
   version="1.1"><metadata
     id="metadata8"><rdf:RDF><cc:Work
         rdf:about=""><dc:format>image/svg+xml</dc:format><dc:type
           rdf:resource="http://purl.org/dc/dcmitype/StillImage" /></cc:Work></rdf:RDF></metadata><defs
     id="defs6"><clipPath
       id="clipPath18"
       clipPathUnits="userSpaceOnUse"><path
         id="path16"
         d="M 0,18.781 H 18.687 V 0 H 0 Z" /></clipPath></defs><g
     transform="matrix(1.3333333,0,0,-1.3333333,0,25.041733)"
     id="g10"><g
       id="g12"><g
         clip-path="url(#clipPath18)"
         id="g14"><g
           transform="translate(18.542,9.375)"
           id="g20"><path
             id="path22"
             style="fill:#0074a6;fill-opacity:1;fill-rule:nonzero;stroke:none"
             d="m 0,0 c 0,-5.063 -4.104,-9.167 -9.167,-9.167 -5.063,0 -9.167,4.104 -9.167,9.167 0,5.063 4.104,9.167 9.167,9.167 C -4.104,9.167 0,5.063 0,0" /></g><path
           id="path24"
           style="fill:#ffffff;fill-opacity:1;fill-rule:nonzero;stroke:none"
           d="M 12.395,5.75 H 6.353 v 7.249 h 6.042 z M 9.375,3.938 c -0.333,0 -0.604,0.271 -0.604,0.604 0,0.333 0.271,0.604 0.604,0.604 0.333,0 0.604,-0.271 0.604,-0.604 0,-0.333 -0.271,-0.604 -0.604,-0.604 m -1.41,10.27 h 2.82 c 0.111,0 0.201,-0.09 0.201,-0.201 0,-0.112 -0.09,-0.202 -0.201,-0.202 h -2.82 c -0.111,0 -0.201,0.09 -0.201,0.202 0,0.111 0.09,0.201 0.201,0.201 m 3.826,1.208 H 6.959 C 6.292,15.416 5.75,14.874 5.75,14.208 V 13.402 5.348 4.542 c 0,-0.666 0.542,-1.208 1.209,-1.208 h 4.832 C 12.458,3.334 13,3.876 13,4.542 v 0.806 8.054 0.806 c 0,0.666 -0.542,1.208 -1.209,1.208" /></g></g></g></svg>