<?xml version="1.0" encoding="UTF-8" standalone="no"?>
<svg
   xmlns:dc="http://purl.org/dc/elements/1.1/"
   xmlns:cc="http://creativecommons.org/ns#"
   xmlns:rdf="http://www.w3.org/1999/02/22-rdf-syntax-ns#"
   xmlns:svg="http://www.w3.org/2000/svg"
   xmlns="http://www.w3.org/2000/svg"
   viewBox="0 0 24.916668 25.041733"
   height="25.041733"
   width="24.916668"
   xml:space="preserve"
   id="svg2"
   version="1.1"><metadata
     id="metadata8"><rdf:RDF><cc:Work
         rdf:about=""><dc:format>image/svg+xml</dc:format><dc:type
           rdf:resource="http://purl.org/dc/dcmitype/StillImage" /></cc:Work></rdf:RDF></metadata><defs
     id="defs6"><clipPath
       id="clipPath18"
       clipPathUnits="userSpaceOnUse"><path
         id="path16"
         d="M 0,18.781 H 18.687 V 0 H 0 Z" /></clipPath></defs><g
     transform="matrix(1.3333333,0,0,-1.3333333,0,25.041733)"
     id="g10"><g
       id="g12"><g
         clip-path="url(#clipPath18)"
         id="g14"><g
           transform="translate(18.5967,9.3203)"
           id="g20"><path
             id="path22"
             style="fill:#0074a6;fill-opacity:1;fill-rule:nonzero;stroke:none"
             d="m 0,0 c 0,-5.063 -4.104,-9.167 -9.167,-9.167 -5.063,0 -9.167,4.104 -9.167,9.167 0,5.063 4.104,9.167 9.167,9.167 C -4.104,9.167 0,5.063 0,0" /></g><path
           id="path24"
           style="fill:#ffffff;fill-opacity:1;fill-rule:nonzero;stroke:none"
           d="m 5.176,10.997 h 1.84 V 5.079 h -1.84 z m 1.9,1.646 c 0,-0.509 -0.376,-0.92 -0.993,-0.92 -0.581,0 -0.956,0.411 -0.956,0.92 0,0.52 0.388,0.919 0.98,0.919 0.593,0 0.957,-0.399 0.969,-0.919" /><g
           transform="translate(8.1162,9.1086)"
           id="g26"><path
             id="path28"
             style="fill:#ffffff;fill-opacity:1;fill-rule:nonzero;stroke:none"
             d="M 0,0 C 0,0.738 -0.024,1.355 -0.048,1.888 H 1.549 L 1.634,1.065 H 1.67 c 0.242,0.387 0.835,0.956 1.828,0.956 1.21,0 2.118,-0.811 2.118,-2.553 V -4.03 h -1.84 v 3.28 C 3.776,0.012 3.51,0.532 2.844,0.532 2.336,0.532 2.034,0.182 1.9,-0.157 1.852,-0.278 1.84,-0.448 1.84,-0.617 V -4.03 H 0 Z" /></g></g></g></g></svg>